<svg width="40" height="40" viewBox="0 0 40 40" fill="none" xmlns="http://www.w3.org/2000/svg">
<path fill-rule="evenodd" clip-rule="evenodd" d="M20.0959 1.06012e-05C15.3252 -0.00494207 10.7087 1.72559 7.07375 4.88148C3.43877 8.03737 1.02288 12.4123 0.259041 17.2224C-0.504801 22.0324 0.433326 26.963 2.9053 31.1307C5.37728 35.2984 9.22153 38.4307 13.7491 39.9663C14.7597 40.1551 15.1171 39.5131 15.1171 38.9719C15.1171 38.4306 15.1171 37.197 15.1171 35.485C9.50975 36.7312 8.32667 32.7283 8.32667 32.7283C7.95468 31.4877 7.16439 30.4218 6.09607 29.7198C4.28447 28.461 6.24395 28.461 6.24395 28.461C6.87899 28.5527 7.4853 28.7907 8.01695 29.1571C8.5486 29.5235 8.99166 30.0086 9.31257 30.5758C9.58525 31.0808 9.95287 31.5259 10.3944 31.8854C10.8358 32.245 11.3425 32.5119 11.8852 32.671C12.4279 32.83 12.9961 32.8781 13.557 32.8123C14.118 32.7465 14.6607 32.5683 15.154 32.2877C15.2314 31.2522 15.6685 30.279 16.3864 29.5436C11.9252 29.0275 7.24218 27.2652 7.24218 19.4733C7.21155 17.4379 7.94843 15.4683 9.30025 13.9725C8.69818 12.2027 8.76855 10.2665 9.49743 8.54713C9.49743 8.54713 11.1858 7.99327 15.0185 10.6493C18.3096 9.72631 21.7835 9.72631 25.0747 10.6493C28.9074 7.99327 30.5834 8.54713 30.5834 8.54713C31.3224 10.2483 31.4104 12.1706 30.8299 13.9347C32.1817 15.4306 32.9186 17.4001 32.8879 19.4356C32.8879 27.3156 28.1926 29.0401 23.7191 29.5058C24.1987 29.9984 24.5692 30.5905 24.8052 31.242C25.0412 31.8936 25.1373 32.5893 25.087 33.2822C25.087 36.0263 25.087 38.2418 25.087 38.9089C25.087 39.5761 25.4444 40.0922 26.4673 39.8908C30.9433 38.3147 34.73 35.1734 37.1583 31.022C39.5866 26.8705 40.5003 21.976 39.738 17.2031C38.9757 12.4302 36.5864 8.08612 32.9922 4.93824C29.398 1.79036 24.8303 0.041285 20.0959 1.06012e-05V1.06012e-05Z" fill="#191717"/>
</svg>
