<svg width="40" height="40" viewBox="0 0 40 40" fill="none" xmlns="http://www.w3.org/2000/svg">
<path d="M37.3216 2.67942C33.7504 -0.891793 27.9394 -0.892531 24.3677 2.67746L24.3684 2.67819L18.7175 8.33012L21.3259 10.9381L26.9779 5.28492L26.9774 5.28443C29.1114 3.15405 32.5806 3.15528 34.7132 5.28787C36.846 7.42047 36.8458 10.8914 34.7132 13.0247L26.2325 21.5049C25.1994 22.5383 23.8257 23.1073 22.3644 23.1073C20.9032 23.1073 19.5292 22.5383 18.4961 21.5049L15.8877 24.1131C17.6177 25.8432 19.918 26.7961 22.3647 26.7961C24.8113 26.7961 27.1116 25.8432 28.8409 24.1131L37.3219 15.6329C40.8924 12.0609 40.8924 6.2499 37.3216 2.67942Z" fill="white"/>
<path d="M13.0246 34.7144C10.8912 36.8465 7.42059 36.846 5.28775 34.7132C3.1549 32.5798 3.1549 29.1085 5.2875 26.9754L13.7672 18.4956C15.9006 16.3625 19.3715 16.3625 21.5043 18.4956L24.113 15.8874C20.5413 12.316 14.7303 12.3157 11.159 15.8874L2.67881 24.3672C-0.891674 27.9386 -0.891674 33.7499 2.67905 37.3216C4.46515 39.1075 6.81072 40.0004 9.15677 40.0002C11.5018 40.0002 13.8474 39.1077 15.6325 37.3228L15.633 37.3226L21.2852 31.669L18.6765 29.0607L13.0246 34.7144Z" fill="white"/>
</svg>
