<svg width="40" height="40" viewBox="0 0 40 40" fill="none" xmlns="http://www.w3.org/2000/svg">
<path d="M37.3215 2.67942C33.7503 -0.891793 27.9392 -0.892531 24.3675 2.67746L24.3683 2.67819L18.7173 8.33012L21.3258 10.9381L26.9777 5.28492L26.9772 5.28443C29.1113 3.15405 32.5804 3.15528 34.713 5.28787C36.8459 7.42047 36.8456 10.8914 34.713 13.0247L26.2323 21.5049C25.1992 22.5383 23.8255 23.1073 22.3643 23.1073C20.903 23.1073 19.5291 22.5383 18.496 21.5049L15.8875 24.1131C17.6176 25.8432 19.9179 26.7961 22.3645 26.7961C24.8112 26.7961 27.1115 25.8432 28.8408 24.1131L37.3217 15.6329C40.8922 12.0609 40.8922 6.2499 37.3215 2.67942Z" fill="black"/>
<path d="M13.0245 34.7144C10.8911 36.8465 7.4205 36.846 5.28766 34.7132C3.15481 32.5798 3.15481 29.1085 5.28741 26.9754L13.7671 18.4956C15.9005 16.3625 19.3714 16.3625 21.5042 18.4956L24.1129 15.8874C20.5412 12.316 14.7302 12.3157 11.1589 15.8874L2.67871 24.3672C-0.891766 27.9386 -0.891766 33.7499 2.67896 37.3216C4.46506 39.1075 6.81062 40.0004 9.15668 40.0002C11.5018 40.0002 13.8473 39.1077 15.6324 37.3228L15.6329 37.3226L21.2851 31.669L18.6764 29.0607L13.0245 34.7144Z" fill="black"/>
</svg>
