<svg width="30" height="30" viewBox="0 0 30 30" fill="none" xmlns="http://www.w3.org/2000/svg">
<g clip-path="url(#clip0)">
<path d="M15.1197 29.4873C9.587 29.4873 4.25276 26.4354 1.61157 21.1615C-2.03446 13.8772 0.702021 5.10685 7.8427 1.19362L9.08578 0.512665L8.71485 1.88061C7.82279 5.17319 8.17262 8.66602 9.69979 11.7155C11.3584 15.0286 14.2089 17.4979 17.7247 18.6674C21.2416 19.8369 25.0017 19.5673 28.3154 17.9087C28.4662 17.8333 28.6121 17.7531 28.7581 17.6728L30.0012 16.9913L29.6483 18.3496C28.5247 22.495 25.6814 25.9728 21.8478 27.8926C19.6861 28.9746 17.3857 29.4867 15.1197 29.4873ZM7.23894 2.97713C1.56151 6.85417 -0.454819 14.3386 2.6912 20.621C6.11588 27.4607 14.4659 30.2382 21.3068 26.8142C24.4154 25.2568 26.8171 22.5849 28.0506 19.3611C24.6536 20.8249 20.884 20.9908 17.3435 19.8122C13.5213 18.5408 10.4236 15.8574 8.62015 12.256C7.17682 9.37352 6.70094 6.12798 7.23894 2.97713Z" fill="white"/>
</g>
<defs>
<clipPath id="clip0">
<rect width="30" height="30" fill="white"/>
</clipPath>
</defs>
</svg>
