<svg width="30" height="30" viewBox="0 0 30 30" fill="none" xmlns="http://www.w3.org/2000/svg">
<g clip-path="url(#clip0)">
<path d="M15.1197 29.4873C9.58706 29.4873 4.25282 26.4354 1.61163 21.1615C-2.0344 13.8772 0.702082 5.10685 7.84276 1.19362L9.08584 0.512665L8.71491 1.88061C7.82285 5.17319 8.17268 8.66602 9.69985 11.7155C11.3585 15.0286 14.209 17.4979 17.7247 18.6674C21.2417 19.8369 25.0017 19.5673 28.3154 17.9087C28.4662 17.8333 28.6122 17.7531 28.7581 17.6728L30.0012 16.9913L29.6484 18.3496C28.5247 22.495 25.6815 25.9728 21.8479 27.8926C19.6862 28.9746 17.3858 29.4867 15.1197 29.4873ZM7.239 2.97713C1.56157 6.85417 -0.454758 14.3386 2.69126 20.621C6.11594 27.4607 14.4659 30.2382 21.3068 26.8142C24.4155 25.2568 26.8172 22.5849 28.0506 19.3611C24.6537 20.8249 20.884 20.9908 17.3435 19.8122C13.5214 18.5408 10.4236 15.8574 8.62021 12.256C7.17688 9.37352 6.701 6.12798 7.239 2.97713Z" fill="black"/>
</g>
<defs>
<clipPath id="clip0">
<rect width="30" height="30" fill="white"/>
</clipPath>
</defs>
</svg>
