<svg width="30" height="30" viewBox="0 0 30 30" fill="none" xmlns="http://www.w3.org/2000/svg">
<path d="M7.96875 14.9872C7.96875 18.8758 11.1167 22.0281 15 22.0281C18.8833 22.0281 22.0312 18.8758 22.0312 14.9872C22.0312 11.0986 18.8833 7.94629 15 7.94629C11.1167 7.94629 7.96875 11.0986 7.96875 14.9872ZM21.0938 14.9872C21.0938 18.3519 18.3601 21.0893 15 21.0893C11.6399 21.0893 8.90625 18.3519 8.90625 14.9872C8.90625 11.6225 11.6399 8.8851 15 8.8851C18.3601 8.8851 21.0938 11.6225 21.0938 14.9872Z" fill="black"/>
<path d="M15.3479 5.51723C15.607 5.51723 15.8167 5.30728 15.8167 5.04783V0.469406C15.8167 0.209953 15.607 0 15.3479 0C15.0888 0 14.8792 0.209953 14.8792 0.469406V5.04783C14.8792 5.30728 15.0888 5.51723 15.3479 5.51723Z" fill="black"/>
<path d="M22.8021 2.18381C22.5769 2.0527 22.2903 2.13013 22.1617 2.35476L19.8724 6.3194C19.7424 6.54402 19.8193 6.83099 20.0432 6.9607C20.1173 7.00377 20.1979 7.02398 20.2775 7.02398C20.4396 7.02398 20.597 6.94007 20.6836 6.78974L22.9729 2.82506C23.1028 2.60048 23.026 2.31351 22.8021 2.18381Z" fill="black"/>
<path d="M23.7946 10.7947C23.8738 10.7947 23.9543 10.7745 24.0285 10.7319L27.9932 8.44269C28.217 8.31341 28.2944 8.02602 28.1648 7.8014C28.0353 7.57771 27.7506 7.49976 27.5244 7.62951L23.5597 9.91869C23.3359 10.048 23.2586 10.3354 23.3881 10.56C23.4746 10.7104 23.6325 10.7947 23.7946 10.7947Z" fill="black"/>
<path d="M5.51606 15.3479C5.51606 15.0885 5.30639 14.8785 5.04731 14.8785H0.46875C0.209672 14.8785 0 15.0885 0 15.3479C0 15.6074 0.209672 15.8173 0.46875 15.8173H5.04731C5.30639 15.8173 5.51606 15.6074 5.51606 15.3479Z" fill="black"/>
<path d="M2.00728 8.44271L5.97197 10.7319C6.04613 10.7746 6.12624 10.7947 6.20588 10.7947C6.36792 10.7947 6.52589 10.7104 6.61238 10.56C6.74195 10.3354 6.6646 10.048 6.44072 9.91871L2.47603 7.62953C2.25038 7.49978 1.96425 7.57679 1.83563 7.80142C1.70606 8.02604 1.78346 8.31343 2.00728 8.44271Z" fill="black"/>
<path d="M9.72241 7.02398C9.80206 7.02398 9.88263 7.00378 9.95632 6.96117C10.1806 6.831 10.2575 6.54403 10.128 6.31987L7.83916 2.35523C7.70918 2.13014 7.42216 2.05317 7.19876 2.18334C6.97446 2.31352 6.89755 2.60048 7.0271 2.82464L9.31592 6.78928C9.40292 6.94008 9.56037 7.02398 9.72241 7.02398Z" fill="black"/>
<path d="M15.3479 24.4837C15.0888 24.4837 14.8792 24.6937 14.8792 24.9531V29.5306C14.8792 29.79 15.0888 30 15.3479 30C15.607 30 15.8167 29.79 15.8167 29.5306V24.9531C15.8167 24.6937 15.607 24.4837 15.3479 24.4837Z" fill="black"/>
<path d="M10.5597 23.3877C10.334 23.2566 10.0483 23.3341 9.91925 23.5587L7.62997 27.5233C7.49998 27.748 7.57686 28.0349 7.80073 28.1646C7.8749 28.2077 7.95547 28.2279 8.03511 28.2279C8.19715 28.2279 8.35461 28.144 8.44115 27.9936L10.7304 24.029C10.8604 23.8044 10.7835 23.5174 10.5597 23.3877Z" fill="black"/>
<path d="M6.3199 19.8713L2.35521 22.1606C2.13138 22.2898 2.054 22.5773 2.18356 22.8019C2.27009 22.9522 2.42801 23.0366 2.59006 23.0366C2.66923 23.0366 2.74981 23.0164 2.82396 22.9738L6.78865 20.6845C7.01248 20.5553 7.08987 20.2679 6.96031 20.0432C6.83121 19.8191 6.5456 19.7412 6.3199 19.8713Z" fill="black"/>
<path d="M29.5312 14.8785H24.9536C24.6945 14.8785 24.4849 15.0885 24.4849 15.3479C24.4849 15.6074 24.6945 15.8173 24.9536 15.8173H29.5312C29.7903 15.8173 30 15.6074 30 15.3479C30 15.0885 29.7903 14.8785 29.5312 14.8785Z" fill="black"/>
<path d="M27.6448 22.1606L23.6801 19.8713C23.4549 19.7416 23.1683 19.8191 23.0397 20.0432C22.9101 20.2679 22.9875 20.5553 23.2114 20.6845L27.1761 22.9738C27.2502 23.0164 27.3303 23.0366 27.41 23.0366C27.572 23.0366 27.7299 22.9522 27.8165 22.8019C27.946 22.5773 27.8686 22.2898 27.6448 22.1606Z" fill="black"/>
<path d="M20.0802 23.5587C19.9511 23.3341 19.6646 23.2566 19.4398 23.3877C19.216 23.5174 19.1391 23.8044 19.2691 24.029L21.5583 27.9936C21.6449 28.144 21.8023 28.2279 21.9644 28.2279C22.044 28.2279 22.1246 28.2077 22.1988 28.1646C22.4226 28.0349 22.4995 27.748 22.3695 27.5233L20.0802 23.5587Z" fill="black"/>
</svg>
